<?xml version="1.0" encoding="UTF-8"?>
<svg  viewBox="0 0 100 125" x="0px" y="0px" style="enable-background:new 0 0 100 100;" version="1.1" xmlns="http://www.w3.org/2000/svg" xmlns:xlink="http://www.w3.org/1999/xlink">
    <g id="Page-1" stroke="none" stroke-width="1" fill="none" fill-rule="evenodd">
        <g id="cloud" fill-rule="nonzero" fill="#4A90E2">
            <path class="st0" d="M77.2,7.2 C74.6,7.2 72.1,7.6 69.7,8.5 C64.5,3.7 57.6,0.8 50,0.8 C42.4,0.8 35.5,3.7 30.3,8.5 C28,7.7 25.4,7.2 22.8,7.2 C10.2,7.2 0,17.4 0,30 C0,42.6 10.2,52.8 22.8,52.8 C25.4,52.8 27.9,52.3 30.3,51.5 C35.5,56.3 42.4,59.2 50,59.2 C57.6,59.2 64.5,56.3 69.7,51.5 C72,52.3 74.6,52.8 77.2,52.8 C89.8,52.8 100,42.6 100,30 C100,17.4 89.8,7.2 77.2,7.2 Z M77.2,51.8 C74.9,51.8 72.6,51.4 70.5,50.7 L69.5,50.3 L68.7,51.1 C63.7,55.5 57.2,58.2 50,58.2 C42.8,58.2 36.3,55.5 31.3,51.1 L30.5,50.4 L29.4,50.8 C27.3,51.5 25.1,51.8 22.7,51.8 C10.8,51.8 1,42 1,30 C1,18 10.8,8.2 22.8,8.2 C25.1,8.2 27.4,8.6 29.5,9.3 L30.5,9.7 L31.3,9 C36.3,4.6 42.8,1.9 50,1.9 C57.2,1.9 63.7,4.6 68.7,9 L69.5,9.8 L70.5,9.4 C72.6,8.7 74.8,8.3 77.2,8.3 C89.2,8.2 99,18 99,30 C99,42 89.2,51.8 77.2,51.8 Z" id="Shape"></path>
        </g>
    </g>
</svg>